<?xml version="1.0" standalone="no"?>
<!DOCTYPE svg PUBLIC "-//W3C//DTD SVG 20010904//EN"
        "http://www.w3.org/TR/2001/REC-SVG-20010904/DTD/svg10.dtd">
<svg version="1.0" xmlns="http://www.w3.org/2000/svg"
     width="512.000000pt" height="512.000000pt" viewBox="0 0 512.000000 512.000000"
     preserveAspectRatio="xMidYMid meet">

    <g transform="translate(0.000000,512.000000) scale(0.100000,-0.100000)"
       fill="#ffffff" stroke="none">
        <path d="M3055 4903 c-22 -6 -1381 -818 -1405 -839 -12 -12 144 -14 1008 -14
562 0 1022 2 1022 4 0 9 -453 781 -469 800 -34 39 -105 61 -156 49z"/>
        <path d="M490 4675 c-78 -19 -125 -41 -202 -92 -132 -87 -226 -221 -268 -383
-19 -73 -20 -125 -20 -1746 0 -1638 0 -1672 20 -1749 58 -228 226 -402 455
-471 57 -17 159 -19 1925 -22 1322 -2 1884 0 1930 8 125 21 231 92 299 198 54
87 61 130 61 403 l0 247 -352 4 c-330 4 -358 6 -428 27 -177 53 -316 138 -440
267 -124 130 -194 255 -242 430 -31 115 -31 334 0 458 87 345 350 610 698 703
95 25 111 26 432 31 l333 4 -3 267 -3 266 -33 67 c-37 76 -105 151 -172 191
-104 60 11 57 -2022 57 -2038 0 -1896 -4 -1961 58 -51 48 -70 97 -65 168 5 78
41 136 108 174 l45 25 395 5 395 5 340 204 c187 112 342 205 344 207 2 2 -337
4 -755 3 -601 0 -770 -3 -814 -14z m1300 -1292 c40 -23 50 -52 50 -143 0 -44
4 -80 8 -80 5 0 17 9 27 20 37 41 121 34 146 -11 6 -13 12 -41 12 -63 0 -41
-22 -68 -97 -121 -15 -11 -33 -25 -40 -31 -6 -6 -21 -16 -34 -23 -21 -11 -22
-17 -22 -160 l0 -149 93 -4 c97 -3 139 -20 153 -62 4 -11 20 -42 36 -68 l30
-48 31 19 c18 10 50 29 72 41 22 12 52 31 67 41 14 11 30 19 35 19 4 0 16 7
26 14 13 10 20 38 27 115 11 120 27 157 73 169 78 21 137 -37 120 -121 l-6
-30 44 24 c24 13 47 28 50 33 4 5 30 11 58 14 65 6 116 -24 131 -78 23 -80 2
-125 -80 -176 -62 -38 -62 -38 -39 -54 59 -39 64 -47 64 -100 0 -101 -72 -118
-211 -49 l-83 41 -73 -43 c-40 -23 -97 -58 -126 -76 l-53 -34 41 -73 c24 -44
40 -87 40 -106 0 -19 -16 -62 -40 -106 l-41 -73 53 -34 c29 -18 86 -53 126
-76 l72 -43 84 41 c124 61 193 53 212 -24 12 -49 -8 -88 -65 -125 -23 -15 -22
-15 43 -57 55 -35 66 -47 76 -82 14 -52 0 -108 -36 -142 -21 -20 -36 -24 -85
-24 -33 0 -63 5 -67 10 -4 6 -27 21 -51 34 l-44 24 7 -36 c10 -54 -14 -102
-57 -116 -41 -14 -79 -7 -102 19 -16 18 -29 83 -41 201 -4 48 -9 58 -32 70
-15 7 -38 21 -52 30 -14 9 -43 27 -65 39 -22 12 -54 31 -72 41 l-31 20 -36
-60 c-20 -32 -36 -63 -36 -67 0 -5 -13 -18 -28 -29 -21 -16 -46 -21 -119 -23
l-93 -4 0 -149 c0 -143 1 -149 22 -160 13 -7 28 -17 34 -23 7 -6 25 -20 40
-31 75 -53 97 -80 97 -121 0 -22 -6 -50 -12 -63 -25 -45 -109 -52 -146 -11
-10 11 -22 20 -27 20 -4 0 -8 -36 -8 -80 0 -43 -5 -90 -11 -103 -16 -35 -60
-57 -114 -57 -40 0 -51 5 -81 35 -33 35 -34 37 -34 120 0 50 -4 85 -10 85 -5
0 -10 -4 -10 -9 0 -17 -72 -43 -102 -37 -84 17 -99 133 -23 185 30 20 47 33
91 69 5 5 20 15 32 21 21 11 22 18 22 160 l0 149 -92 4 c-108 4 -133 17 -167
88 -12 25 -29 55 -39 67 l-17 22 -95 -57 c-53 -31 -108 -63 -122 -71 -23 -12
-28 -22 -32 -70 -12 -118 -25 -183 -41 -201 -23 -26 -61 -33 -102 -19 -43 14
-67 62 -57 116 l7 36 -44 -24 c-24 -13 -47 -28 -51 -34 -4 -5 -34 -10 -67 -10
-49 0 -64 4 -85 24 -36 34 -50 90 -36 142 9 34 21 47 72 80 34 22 63 41 65 43
2 2 -14 15 -36 29 -47 31 -61 78 -41 128 27 63 89 66 207 8 l83 -42 123 74
c67 40 124 74 126 75 1 2 -15 36 -38 77 -24 44 -41 88 -41 107 0 19 17 63 41
107 23 41 39 75 38 77 -2 1 -59 35 -126 75 l-122 73 -84 -41 c-94 -47 -150
-53 -188 -22 -20 16 -24 29 -24 71 0 53 5 61 64 100 23 16 23 16 -39 54 -43
27 -66 49 -76 72 -27 65 -12 127 41 163 29 19 44 23 86 19 28 -3 54 -9 58 -14
3 -5 25 -19 47 -31 l42 -23 -1 50 c-1 41 4 55 24 76 43 42 118 34 144 -17 9
-16 20 -75 25 -130 7 -77 14 -105 27 -115 10 -7 21 -14 24 -14 4 0 51 -27 105
-59 l99 -60 17 22 c9 12 27 43 40 68 36 72 58 83 166 87 l92 4 0 149 c0 143
-1 149 -22 160 -13 7 -28 17 -34 23 -7 6 -24 20 -40 31 -81 58 -94 75 -94 125
0 49 11 69 52 91 26 14 79 4 106 -21 12 -11 24 -20 27 -20 3 0 5 38 5 85 0 83
1 85 34 120 30 30 41 35 81 35 26 0 60 -7 75 -17z"/>
        <path d="M1526 2338 c-9 -12 -16 -28 -16 -35 0 -7 -4 -13 -8 -13 -4 0 -13 -12
-19 -27 -6 -16 -28 -57 -49 -93 -20 -36 -46 -82 -57 -102 l-21 -38 21 -37 c11
-21 37 -67 57 -103 20 -36 42 -76 49 -90 6 -14 14 -27 17 -30 3 -3 12 -18 20
-35 l16 -30 184 0 184 0 16 30 c8 17 17 32 20 35 3 3 13 21 24 40 10 19 32 60
49 90 16 30 39 72 50 93 l21 37 -21 38 c-11 20 -34 62 -50 92 -17 30 -39 71
-49 90 -11 19 -21 37 -24 40 -3 3 -12 19 -20 35 l-16 30 -181 3 c-178 2 -182
2 -197 -20z"/>
        <path d="M3690 4685 c0 -8 341 -597 352 -610 6 -6 8 51 6 146 l-3 155 -37 75
c-45 92 -113 159 -201 199 -64 29 -117 45 -117 35z"/>
        <path d="M4065 2659 c-78 -12 -117 -25 -195 -65 -259 -135 -394 -416 -335
-699 49 -233 245 -435 475 -489 53 -13 148 -16 531 -16 l466 0 33 22 c18 13
43 36 54 51 21 28 21 39 24 553 2 506 2 525 -17 563 -11 21 -37 50 -58 62
l-38 24 -440 1 c-242 1 -467 -2 -500 -7z m180 -438 c158 -71 167 -296 15 -380
-107 -60 -247 -12 -295 101 -73 176 109 357 280 279z"/>
    </g>
</svg>